Motion_pu07
version=1
nRows=10
nColumns=43
inDegrees=yes
endheader
time	pelvis_tilt	pelvis_list	pelvis_rotation	pelvis_tx	pelvis_ty	pelvis_tz	hip_flexion_r	hip_adduction_r	hip_rotation_r	knee_angle_r	ankle_angle_r	subtalar_angle_r	mtp_angle_r	hip_flexion_l	hip_adduction_l	hip_rotation_l	knee_angle_l	ankle_angle_l	subtalar_angle_l	mtp_angle_l	lumbar_extension	lumbar_bending	lumbar_rotation	neck_flexion	neck_lateral_bending	neck_rotation	arm_flex_r	arm_add_r	arm_rot_r	elbow_flex_r	pro_sup_r	wrist_flex_r	wrist_dev_r	hand_finger_flex_r	arm_flex_l	arm_add_l	arm_rot_l	elbow_flex_l	pro_sup_l	wrist_flex_l	wrist_dev_l	hand_finger_flex_l
      2.65000000	     -0.06032106	      1.12491603	    -90.90462977	     -0.04045000	      0.81398982	      1.20586701	      7.93687805	    -12.98318596	    -14.71147213	    -80.79530200	    -12.12870342	    -17.61104993	     -4.47551936	      4.80381305	     -8.63132157	     -6.86611780	    -75.09613090	    -10.40769498	      0.82344798	     13.08682562	      9.31959617	     -0.81826004	      7.33782857	     -0.51354251	      1.31855765	     -6.48364218	    -10.36988563	   -155.96292247	   -124.92305217	     36.54290507	    126.36589485	     17.82064542	     -6.74036184	     67.64423653	    164.07448690	    -14.64638489	     50.09644493	     27.77030228	    116.52008641	      2.25706993	     -3.85338719	     64.61730271
      2.65250000	     -0.00410122	      1.26888743	    -90.88222339	     -0.03999819	      0.81398223	      1.20784992	      7.79909874	    -12.72403699	    -14.29565528	    -80.13687920	    -12.23521085	    -17.30401731	     -4.39633708	      4.72010962	     -8.30081953	     -6.46887512	    -74.74468292	    -10.48682917	      0.73747570	     13.23800433	      9.60449952	     -0.79469502	      7.41281164	     -1.45272827	      1.39061500	     -6.17616188	    -10.09471420	   -156.05818878	   -124.14238210	     36.29433155	    126.12321469	     17.82288191	     -6.84735040	     67.70926841	    164.17761302	    -14.77045180	     50.43298769	     27.74613424	    116.45379448	      2.37616764	     -3.81836269	     64.72008458
      2.65500000	      0.00070037	      1.26290762	    -90.89058274	     -0.04000088	      0.81399649	      1.20830610	      7.80815507	    -12.72152843	    -14.29885185	    -80.12779370	    -12.23509073	    -17.30199995	     -4.39573538	      4.71923348	     -8.30467804	     -6.46762749	    -74.74299338	    -10.48687281	      0.73671987	     13.23892176	      9.60593332	     -0.80075241	      7.40663769	     -1.45732892	      1.39045917	     -6.17536427	    -10.08013775	   -156.06056592	   -124.14476028	     36.30152077	    126.12156302	     17.82227413	     -6.84834029	     67.70963511	    164.17739297	    -14.77272445	     50.43300509	     27.74716268	    116.45276805	      2.37591256	     -3.81841891	     64.72052795
      2.65750000	      0.00855376	      1.25730385	    -90.90024171	     -0.04001197	      0.81422645	      1.20884122	      7.82159980	    -12.71816525	    -14.30134293	    -80.10993885	    -12.23482626	    -17.29935106	     -4.39504498	      4.71314865	     -8.31152275	     -6.46318918	    -74.74147744	    -10.48683015	      0.73545556	     13.23997160	      9.61254002	     -0.81068208	      7.39967576	     -1.46484128	      1.39049943	     -6.17437491	    -10.05635559	   -156.06327444	   -124.14727935	     36.30996991	    126.11983872	     17.82148071	     -6.84938926	     67.71006728	    164.18370339	    -14.77578851	     50.43180844	     27.74968702	    116.45145742	      2.37513913	     -3.81859861	     64.72102007
      2.66000000	      0.00885856	      1.26147589	    -90.89949733	     -0.03995892	      0.81407383	      1.20902319	      7.82278510	    -12.71786513	    -14.30145599	    -80.10812723	    -12.23480267	    -17.29913752	     -4.39499678	      4.71263649	     -8.31211974	     -6.46272149	    -74.74121663	    -10.48680561	      0.73534275	     13.24004632	      9.60820517	     -0.81147906	      7.40105910	     -1.46553124	      1.39051974	     -6.17430114	    -10.05622106	   -156.06344027	   -124.14727872	     36.31051639	    126.11972519	     17.82143463	     -6.84945661	     67.71010146	    164.18442207	    -14.77603254	     50.43167280	     27.74994917	    116.45135765	      2.37506747	     -3.81862022	     64.72105740
      2.66250000	      0.06108739	      1.41330782	    -90.92645358	     -0.04024638	      0.81368935	      1.20968668	      7.82896740	    -12.64543268	    -14.25522362	    -79.66713983	    -12.25050251	    -17.22791912	     -4.38143999	      4.73900541	     -8.29852189	     -6.42963111	    -74.54481506	    -10.45969154	      0.71318703	     13.26863403	      9.65819654	     -0.91723813	      7.42659973	     -1.68027958	      1.40637903	     -6.15196037	     -9.66957944	   -156.05063784	   -124.16636609	     36.29693800	    126.08910786	     17.82236052	     -6.86160386	     67.72177036	    164.50828648	    -14.78791356	     50.38814593	     27.85442845	    116.41680280	      2.35296138	     -3.82881677	     64.73276881
      2.66500000	      0.05803165	      1.41765571	    -90.92551514	     -0.04014725	      0.81368238	      1.20986470	      7.82989571	    -12.64529670	    -14.25521761	    -79.66642123	    -12.25044415	    -17.22781439	     -4.38139957	      4.73904455	     -8.29870721	     -6.42943008	    -74.54477838	    -10.45962495	      0.71312259	     13.26869280	      9.65357633	     -0.92016993	      7.42864783	     -1.68054785	      1.40643277	     -6.15192628	     -9.67110245	   -156.05177105	   -124.16611428	     36.29685851	    126.08904075	     17.82239671	     -6.86163302	     67.72179234	    164.50845921	    -14.78787976	     50.38817669	     27.85450625	    116.41675767	      2.35296795	     -3.82882146	     64.73279305
      2.66750000	      0.06425726	      1.39212838	    -90.92014671	     -0.03986086	      0.81377420	      1.21066955	      7.84784903	    -12.64375039	    -14.25429520	    -79.64948597	    -12.24927539	    -17.22594322	     -4.38073260	      4.73748380	     -8.30295362	     -6.42440847	    -74.54375413	    -10.45843074	      0.71180457	     13.26964303	      9.66568773	     -0.92159350	      7.43434752	     -1.68595143	      1.40796159	     -6.15148053	     -9.65566065	   -156.05778463	   -124.17391236	     36.29426243	    126.08845148	     17.82260495	     -6.86180080	     67.72217611	    164.51679522	    -14.78306548	     50.38790695	     27.85808644	    116.41580719	      2.35270160	     -3.82922980	     64.73314364
      2.67000000	      0.08274968	      1.54713092	    -90.95706281	     -0.03981737	      0.81361908	      1.21235399	      7.74647292	    -12.44301049	    -13.90799239	    -79.09340324	    -12.25110702	    -16.63709634	     -4.17695217	      4.55887888	     -8.08120444	     -6.18334738	    -74.19199058	    -10.16644943	      0.46610784	     13.60872508	      9.97464961	     -0.85990456	      7.54609432	     -2.63052003	      1.45315856	     -6.02985554	     -9.67175566	   -156.30869128	   -124.46256345	     35.93363542	    125.94026888	     18.20166753	     -7.00271579	     67.85544919	    164.47471089	    -14.93918488	     50.73987421	     28.01244013	    116.16468662	      2.51641590	     -3.83650079	     64.88453608
      2.67250000	      0.08186801	      1.53883267	    -90.95573843	     -0.03961741	      0.81358367	      1.21274553	      7.75347475	    -12.44255856	    -13.90912575	    -79.08739779	    -12.25043183	    -16.63613394	     -4.17647307	      4.56132522	     -8.08342673	     -6.18313625	    -74.19015597	    -10.16612409	      0.46576889	     13.60933509	      9.97498443	     -0.86342383	      7.54935729	     -2.63187738	      1.45341525	     -6.02984628	     -9.66601752	   -156.31195870	   -124.46652960	     35.93512162	    125.94057364	     18.20175640	     -7.00275860	     67.85561998	    164.47754393	    -14.93827746	     50.73946278	     28.01317763	    116.16405164	      2.51615519	     -3.83650561	     64.88471073
